<?xml version="1.0" encoding="utf-8"?>
<!-- Generator: Adobe Illustrator 23.0.0, SVG Export Plug-In . SVG Version: 6.00 Build 0)  -->
<svg version="1.1" id="Layer_1" xmlns="http://www.w3.org/2000/svg" xmlns:xlink="http://www.w3.org/1999/xlink" x="0px" y="0px"
	 viewBox="0 0 325.7 100" style="enable-background:new 0 0 325.7 100;" xml:space="preserve">
<style type="text/css">
	.st0{fill:#FFFFFF;}
	.st1{fill:#343A40;}
</style>
<g>
	<path class="st0" d="M320.2,75.3c-3.6,3.5-7.9,5.3-12.6,5.3c-4.8,0-9.1-1.8-12.7-5.3c-3.6-3.5-5.4-7.6-5.4-12.2v-8.1
		c0-4.6,1.8-8.7,5.3-12.1c3.6-3.5,7.8-5.2,12.8-5.2c4.8,0,9.1,1.7,12.7,5.1c3.6,3.4,5.4,7.5,5.4,12.1v8.1
		C325.6,67.7,323.8,71.7,320.2,75.3z M316.5,55.1c0-2.3-0.9-4.4-2.7-6.3c-1.8-1.9-3.9-2.8-6.2-2.8c-2.4,0-4.5,0.9-6.3,2.8
		c-1.7,1.9-2.6,4-2.6,6.3v8c0,2.4,0.9,4.5,2.6,6.4c1.7,1.9,3.8,2.8,6.3,2.8c2.4,0,4.5-0.9,6.2-2.8c1.8-1.9,2.7-4,2.7-6.4V55.1z
		 M285.2,76c0,1-0.7,2-2,3c-1.3,1-2.6,1.5-3.8,1.5c-1.1,0-1.9-0.4-2.4-1.1l-9.4-14.5l-9.4,14.5c-0.5,0.7-1.3,1.1-2.4,1.1
		s-2.3-0.5-3.7-1.5c-1.4-1-2.1-2-2.1-3.1c0-0.6,0.2-1.1,0.6-1.7l10.8-15.6L251,44c-0.4-0.5-0.6-1.1-0.6-1.6c0-1.1,0.7-2.1,2.1-3.1
		c1.4-1,2.7-1.5,4-1.5c1,0,1.8,0.4,2.2,1.1l8.9,14l8.9-13.9c0.5-0.8,1.2-1.1,2.3-1.1c1.2,0,2.4,0.5,3.8,1.5c1.4,1,2.1,2.1,2.1,3.1
		c0,0.5-0.2,1-0.6,1.6l-10.4,14.8l10.9,15.5C285,74.9,285.2,75.4,285.2,76z M238.7,27.9c-1.5,0-2.7-0.5-3.8-1.4s-1.6-2.1-1.6-3.4
		c0-1.3,0.5-2.5,1.6-3.4c1-0.9,2.3-1.4,3.8-1.4c1.5,0,2.7,0.5,3.8,1.4c1,0.9,1.6,2.1,1.6,3.4c0,1.3-0.5,2.4-1.6,3.4
		C241.4,27.4,240.1,27.9,238.7,27.9z M224.6,79.9h-27.2c-1,0-1.8-0.3-2.4-1c-0.6-0.7-0.8-1.4-0.8-2.2c0-1,0.5-2.2,1.6-3.7l18.7-27.3
		h-16.6c-0.8,0-1.4-0.4-2-1.1c-0.6-0.7-0.9-1.6-0.9-2.6c0-1,0.3-1.9,0.8-2.6c0.5-0.7,1.2-1.1,2.1-1.1h25.3c0.9,0,1.6,0.3,2.2,0.8
		c0.6,0.5,0.9,1.3,0.9,2.3c0,1.2-0.5,2.5-1.4,3.8l-18.8,27.3h18.5c0.8,0,1.5,0.4,2.1,1.1c0.6,0.7,0.9,1.6,0.9,2.7
		c0,1-0.3,1.9-0.8,2.6C226.2,79.5,225.5,79.9,224.6,79.9z M182.8,27.9c-1.5,0-2.7-0.5-3.8-1.4c-1-1-1.6-2.1-1.6-3.4
		c0-1.3,0.5-2.5,1.6-3.4c1-0.9,2.3-1.4,3.8-1.4c1.5,0,2.7,0.5,3.8,1.4c1,0.9,1.6,2.1,1.6,3.4c0,1.3-0.5,2.4-1.6,3.4
		S184.2,27.9,182.8,27.9z M158.5,78.9c-0.5,1.2-1.7,1.8-3.7,1.8c-2,0-3.2-0.6-3.8-1.8l-7.6-22.6L136,78.7c-0.5,1.3-1.8,2-3.9,2
		c-1.9,0-3.1-0.7-3.7-2l-13.5-35.4c-0.2-0.7-0.3-1.2-0.3-1.5c0-1.1,0.6-2,1.9-2.7c1.3-0.8,2.6-1.1,3.9-1.1c1.5,0,2.4,0.6,2.8,1.7
		l9.7,27.3l7.4-24.2c0.4-1.3,1.5-2,3.2-2s2.8,0.7,3.2,2l7.3,24.4l9.8-27.5c0.4-1.1,1.3-1.7,2.7-1.7c1.3,0,2.6,0.4,3.9,1.1
		c1.3,0.8,2,1.7,2,2.8c0,0.5-0.1,0.9-0.3,1.4L158.5,78.9z M182.8,38.3c1.3,0,2.4,0.3,3.3,0.8c0.9,0.6,1.3,1.3,1.3,2.1v35.5
		c0,0.8-0.5,1.5-1.4,2.1c-0.9,0.6-2,1-3.3,1c-1.3,0-2.4-0.3-3.2-1c-0.9-0.6-1.3-1.3-1.3-2.1V41.3c0-0.9,0.4-1.6,1.3-2.1
		C180.3,38.6,181.4,38.3,182.8,38.3z M238.7,38.3c1.3,0,2.4,0.3,3.3,0.8c0.9,0.6,1.3,1.3,1.3,2.1v35.5c0,0.8-0.5,1.5-1.4,2.1
		c-0.9,0.6-2,1-3.3,1c-1.3,0-2.4-0.3-3.2-1c-0.9-0.6-1.3-1.3-1.3-2.1V41.3c0-0.9,0.4-1.6,1.3-2.1C236.3,38.6,237.3,38.3,238.7,38.3z
		"/>
	<circle class="st0" cx="50" cy="50" r="50"/>
	<path class="st1" d="M86.6,38.6L55.9,69.3c-2.2,2.2-5.7,2.2-7.9,0c-2.2-2.2-2.2-5.7,0-7.9l30.7-30.7c2.2-2.2,5.7-2.2,7.9,0
		C88.8,32.8,88.8,36.4,86.6,38.6z M26.8,69.3c-1.1,1.1-2.6,1.7-4.1,1.6c-0.1,0-0.2,0-0.2,0h-1.9c-2.4,0-4.4-2-4.4-4.4V33.5
		c0-2.4,2-4.4,4.4-4.4h1.9c2.4,0,4.4,2,4.4,4.4v19.9l22.7-22.7c2.2-2.2,5.7-2.2,7.9,0c2.2,2.2,2.2,5.7,0,7.9L26.8,69.3z"/>
</g>
</svg>
